<svg height="512pt" viewBox="-34 0 512 512.00205" width="512pt" xmlns="http://www.w3.org/2000/svg"><path d="m438.414062 169.636719c-4.875-3.617188-11.300781-4.390625-16.894531-2.039063-24.429687 10.746094-49.605469 19.703125-75.332031 26.800782 5.460938-18.183594 12.796875-53.316407.613281-84.28125-2.054687-5.152344-6.53125-8.949219-11.949219-10.128907-5.558593-1.261719-11.382812.339844-15.519531 4.265625-6.171875 5.835938-15.035156 13.925782-22.1875 19.351563-6.613281-32.03125-26.8125-108.15625-71.851562-123.167969-1.75-.582031-3.640625-.582031-5.390625 0-45.039063 15.011719-65.238282 91.136719-71.828125 123.117188-7.742188-6.046876-15.164063-12.492188-22.234375-19.308594-4.136719-3.925782-9.957032-5.523438-15.515625-4.265625-5.417969 1.179687-9.898438 4.980469-11.945313 10.136719-12.179687 30.957031-4.847656 66.089843.679688 84.300781-25.742188-7.105469-50.933594-16.070313-75.382813-26.820313-5.597656-2.351562-12.015625-1.574218-16.894531 2.039063-4.777344 3.492187-7.324219 9.273437-6.6835938 15.15625 3.0156248 28.21875 26.7109378 61.863281 40.5273438 79.433593-3.628906 1.628907-7.5625 2.453126-11.539062 2.417969-6.851563.210938-12.917969 4.480469-15.425782 10.863281-2.542968 6.292969-1.027344 13.5 3.832032 18.242188 14.863281 14.171875 30.84375 27.128906 47.785156 38.742188-2.105469 1.265624-4.28125 2.40625-6.519532 3.414062-4.953124 2.300781-8.53125 6.796875-9.660156 12.140625-1.105468 5.257813.375 10.722656 3.976563 14.703125 18.554687 19.839844 39.515625 37.277344 62.394531 51.917969 18.554688 12.589843 40.464844 19.300781 62.882812 19.269531 12.109376-.011719 24.148438-1.847656 35.710938-5.445312v72.976562c0 4.710938 3.820312 8.535156 8.535156 8.535156 4.710938 0 8.53125-3.824218 8.53125-8.535156v-72.976562c33.25 10.722656 69.574219 5.640624 98.605469-13.789063 22.878906-14.640625 43.839844-32.082031 62.394531-51.917969 3.605469-3.984375 5.082032-9.453125 3.976563-14.710937-1.117188-5.351563-4.703125-9.859375-9.667969-12.152344-2.1875-1.003906-4.320312-2.121094-6.390625-3.34375 16.84375-11.730469 32.777344-24.71875 47.65625-38.851563 4.859375-4.742187 6.371094-11.949218 3.832031-18.246093-2.503906-6.378907-8.570312-10.652344-15.417968-10.863281-3.992188.035156-7.945313-.792969-11.589844-2.433594 13.859375-17.550782 37.546875-51.199219 40.566406-79.417969.636719-5.875-1.910156-11.640625-6.679688-15.128906zm-47.285156 84.011719c-3.140625 3.988281-4.34375 9.171874-3.28125 14.140624 1.066406 4.96875 4.292969 9.203126 8.796875 11.550782 5.933594 2.871094 12.453125 4.328125 19.046875 4.265625-14.203125 13.484375-29.402344 25.875-45.46875 37.070312-4.691406 3.3125-7.398437 8.765625-7.210937 14.507813.144531 5.640625 3.109375 10.835937 7.894531 13.832031 2.734375 1.683594 5.585938 3.164063 8.535156 4.429687-17.621094 18.738282-37.488281 35.226563-59.15625 49.089844-26.351562 17.558594-59.578125 21.269532-89.15625 9.949219v-76.730469c42.605469-2.058594 82.296875-22.222656 109.082032-55.414062 7.550781-9.007813 13.742187-19.070313 18.382812-29.867188 1.53125-4.382812-.722656-9.183594-5.070312-10.808594-4.347657-1.625-9.195313.523438-10.914063 4.835938-4.03125 9.074219-9.316406 17.542969-15.691406 25.15625-23.554688 29.160156-58.359375 46.972656-95.789063 49.03125v-71.976562c43.523438-7.46875 82.304688-68.746094 84.039063-71.519532 2.496093-4.007812 1.273437-9.277344-2.730469-11.777344-4.007812-2.496093-9.28125-1.273437-11.777344 2.730469-10.179687 16.214844-40.746094 55.980469-69.5625 63.0625v-152.40625c0-4.710937-3.820312-8.53125-8.535156-8.53125-4.710938 0-8.53125 3.820313-8.53125 8.53125v152.40625c-28.816406-7.082031-59.382812-46.8125-69.566406-63.0625-2.496094-4.003906-7.769532-5.226562-11.773438-2.730469-4.007812 2.5-5.230468 7.769532-2.730468 11.777344 1.707031 2.773438 40.515624 64.050782 84.035156 71.519532v71.976562c-37.402344-2.074219-72.179688-19.890625-95.71875-49.03125-6.382813-7.628906-11.664063-16.113281-15.691406-25.207031-1.71875-4.3125-6.566407-6.460938-10.914063-4.835938s-6.601563 6.425781-5.070313 10.808594c4.640626 10.796875 10.832032 20.859375 18.382813 29.867187 26.777344 33.207032 66.46875 53.390626 109.078125 55.464844v76.707032c-29.589844 11.140624-62.726562 7.4375-89.128906-9.957032-21.65625-13.816406-41.484375-30.304687-59.015625-49.078125 2.878906-1.304687 5.675781-2.789062 8.371093-4.445312 4.796876-2.984375 7.777344-8.183594 7.925782-13.832031.191406-5.742188-2.523438-11.195313-7.21875-14.507813-16.035156-11.15625-31.203125-23.515625-45.363282-36.972656 6.539063-.007813 12.992188-1.488281 18.882813-4.328125 4.507813-2.347656 7.734375-6.585938 8.800781-11.554688s-.140625-10.15625-3.285156-14.148437c-7.996094-10.117188-34.269531-45.105469-37.035156-70.332031 25.371094 11.15625 51.527344 20.433593 78.257812 27.761718 5.914063 1.320313 12.089844-.589844 16.21875-5.027344s5.59375-10.730468 3.851563-16.539062c-4.828125-16.074219-11.375-46.929688-1.246094-72.855469 7.550781 7.269531 15.476563 14.144531 23.742187 20.589844 4.671876 3.496094 10.804688 4.359375 16.261719 2.296875s9.480469-6.773438 10.667969-12.484375c4.597656-22.179687 22.007812-94.269531 57.847656-109.398437 35.839844 15.128906 53.246094 87.21875 57.8125 109.40625 1.195313 5.707031 5.21875 10.414062 10.675782 12.472656 5.457031 2.0625 11.585937 1.195312 16.257812-2.300782 8.316406-6.410156 16.191406-13.378906 23.566406-20.855468 10.300782 26.179687 3.753906 57.054687-1.074218 73.128906-1.746094 5.808594-.277344 12.105469 3.855468 16.542969 4.132813 4.4375 10.308594 6.347656 16.222656 5.023437 26.773438-7.28125 52.929688-16.671875 78.21875-28.09375-2.730468 25.558594-29.007812 60.546875-37.003906 70.675782zm0 0"/></svg>